<svg xmlns="http://www.w3.org/2000/svg" viewBox="0 0 64 80" x="0px" y="0px"><title>music</title><g><path d="M9,36a5,5,0,1,1,5-5A5,5,0,0,1,9,36Zm0-8a3,3,0,1,0,3,3A3,3,0,0,0,9,28Z"/><path d="M26,32a5,5,0,1,1,5-5A5,5,0,0,1,26,32Zm0-8a3,3,0,1,0,3,3A3,3,0,0,0,26,24Z"/><path d="M13,32a1,1,0,0,1-1-1V9a1,1,0,0,1,.77-1l17-4a1,1,0,0,1,.85.19A1,1,0,0,1,31,5V27a1,1,0,0,1-2,0V6.26L14,9.79V31A1,1,0,0,1,13,32Z"/><path d="M13,16a1,1,0,0,1-.23-2l17-4A1,1,0,0,1,30.23,12l-17,4A.91.91,0,0,1,13,16Z"/><path d="M28,60a5,5,0,1,1,5-5A5,5,0,0,1,28,60Zm0-8a3,3,0,1,0,3,3A3,3,0,0,0,28,52Z"/><path d="M32,44a1,1,0,0,1-.62-.22A1,1,0,0,1,31,43V37a1,1,0,0,1,.77-1l10-2.35a1,1,0,0,1,.85.19,1,1,0,0,1,.38.78v6a1,1,0,0,1-.77,1L32.23,44A.91.91,0,0,1,32,44Zm1-6.21v4l8-1.88v-4Z"/><path d="M32,56a1,1,0,0,1-1-1V43a1,1,0,0,1,2,0V55A1,1,0,0,1,32,56Z"/><path d="M45,30a5,5,0,1,1,5-5A5,5,0,0,1,45,30Zm0-8a3,3,0,1,0,3,3A3,3,0,0,0,45,22Z"/><path d="M49,14a1,1,0,0,1-.62-.22A1,1,0,0,1,48,13V7a1,1,0,0,1,.77-1l10-2.35a1,1,0,0,1,.85.19,1,1,0,0,1,.38.78v6a1,1,0,0,1-.77,1L49.23,14A.91.91,0,0,1,49,14Zm1-6.21v4l8-1.88V5.91Z"/><path d="M49,26a1,1,0,0,1-1-1V13a1,1,0,0,1,2,0V25A1,1,0,0,1,49,26Z"/><path d="M42,58a1,1,0,0,1-1-1,3.83,3.83,0,0,1,.64-2.18,2,2,0,0,0,0-2.3,4,4,0,0,1,0-4.37A1.8,1.8,0,0,0,42,47a1,1,0,0,1,2,0,3.83,3.83,0,0,1-.64,2.18,2,2,0,0,0,0,2.31,4,4,0,0,1,0,4.36A1.8,1.8,0,0,0,43,57,1,1,0,0,1,42,58Z"/><path d="M36,30a1,1,0,0,1-1-1,3.83,3.83,0,0,1,.64-2.18,2,2,0,0,0,0-2.3,4,4,0,0,1,0-4.37A1.8,1.8,0,0,0,36,19a1,1,0,0,1,2,0,3.83,3.83,0,0,1-.64,2.18,2,2,0,0,0,0,2.31,4,4,0,0,1,0,4.36A1.8,1.8,0,0,0,37,29,1,1,0,0,1,36,30Z"/><path d="M58,30a1,1,0,0,1-1-1,3.83,3.83,0,0,1,.64-2.18,2,2,0,0,0,0-2.3,4,4,0,0,1,0-4.37A1.8,1.8,0,0,0,58,19a1,1,0,0,1,2,0,3.83,3.83,0,0,1-.64,2.18,2,2,0,0,0,0,2.31,4,4,0,0,1,0,4.36A1.8,1.8,0,0,0,59,29,1,1,0,0,1,58,30Z"/><path d="M18.5,46a1,1,0,0,1-1-1,3.83,3.83,0,0,1,.64-2.18,2,2,0,0,0,0-2.3,4,4,0,0,1,0-4.37A1.8,1.8,0,0,0,18.5,35a1,1,0,0,1,2,0,3.83,3.83,0,0,1-.64,2.18,2,2,0,0,0,0,2.31,4,4,0,0,1,0,4.36A1.8,1.8,0,0,0,19.5,45,1,1,0,0,1,18.5,46Z"/><path d="M5,22a1,1,0,0,1-1-1,3.83,3.83,0,0,1,.64-2.18,2,2,0,0,0,0-2.3,4,4,0,0,1,0-4.37A1.8,1.8,0,0,0,5,11a1,1,0,0,1,2,0,3.83,3.83,0,0,1-.64,2.18,2,2,0,0,0,0,2.31,4,4,0,0,1,0,4.36A1.8,1.8,0,0,0,6,21,1,1,0,0,1,5,22Z"/><path d="M40,14a1,1,0,0,1-1-1,1,1,0,0,0-1-1,1,1,0,0,1,0-2,1,1,0,0,0,1-1,1,1,0,0,1,2,0,1,1,0,0,0,1,1,1,1,0,0,1,0,2,1,1,0,0,0-1,1A1,1,0,0,1,40,14Z"/><path d="M50,42a1,1,0,0,1-1-1,1,1,0,0,0-1-1,1,1,0,0,1,0-2,1,1,0,0,0,1-1,1,1,0,0,1,2,0,1,1,0,0,0,1,1,1,1,0,0,1,0,2,1,1,0,0,0-1,1A1,1,0,0,1,50,42Z"/><path d="M57,60a1,1,0,0,1-1-1,1,1,0,0,0-1-1,1,1,0,0,1,0-2,1,1,0,0,0,1-1,1,1,0,0,1,2,0,1,1,0,0,0,1,1,1,1,0,0,1,0,2,1,1,0,0,0-1,1A1,1,0,0,1,57,60Z"/><path d="M13,50a1,1,0,0,1-1-1,1,1,0,0,0-1-1,1,1,0,0,1,0-2,1,1,0,0,0,1-1,1,1,0,0,1,2,0,1,1,0,0,0,1,1,1,1,0,0,1,0,2,1,1,0,0,0-1,1A1,1,0,0,1,13,50Z"/><rect x="52" y="47" width="2" height="2"/><rect x="15" y="57" width="2" height="2"/><rect x="5" y="52" width="2" height="2"/><rect x="8" y="40" width="2" height="2"/><rect x="8" y="22" width="2" height="2"/><rect x="8" y="7" width="2" height="2"/><rect x="53" y="25" width="2" height="2"/><rect x="57" y="37" width="2" height="2"/><rect x="35" y="45" width="2" height="2"/><rect x="25" y="35" width="2" height="2"/><rect x="16" y="18" width="2" height="2"/></g><text x="0" y="79" fill="#000000" font-size="5px" font-weight="bold" font-family="'Helvetica Neue', Helvetica, Arial-Unicode, Arial, Sans-serif">Created by tezar tantular</text><text x="0" y="84" fill="#000000" font-size="5px" font-weight="bold" font-family="'Helvetica Neue', Helvetica, Arial-Unicode, Arial, Sans-serif">from the Noun Project</text></svg>